<svg> 9200042724609" viewBox="0 0 150 144.49910464418684" class="looka-1j8o68f"> <defs id="SvgjsDefs1800"></defs>
  <g id="SvgjsG1801" featurekey="phAakL-0" transform="matrix(0.6666723746329276,0,0,0.6666723746329276,41.66602618057626,-5.80083473072542)" fill="#3a4750">
    <path xmlns="http://www.w3.org/2000/svg" fill="#3a4750" d="M17.182,42.598c0.043-0.014,4.444-1.39,13.528-1.39c9.115,0,14.594,1.385,14.648,1.399  c0.05,0.013,0.1,0.019,0.149,0.019c0.265,0,0.506-0.178,0.576-0.446c0.083-0.318-0.109-0.642-0.427-0.725  c-0.227-0.059-5.664-1.437-14.946-1.437c-9.3,0-13.709,1.388-13.893,1.447c-0.312,0.101-0.484,0.436-0.383,0.748  C16.534,42.526,16.87,42.698,17.182,42.598z">
    </path>
    <path xmlns="http://www.w3.org/2000/svg" fill="#3a4750" d="M16.434,48.995c0.101,0.312,0.437,0.484,0.748,0.384c0.043-0.014,4.444-1.39,13.528-1.39  c9.115,0,14.594,1.385,14.648,1.399c0.05,0.013,0.1,0.019,0.149,0.019c0.265,0,0.506-0.178,0.576-0.446  c0.083-0.318-0.109-0.643-0.427-0.725C45.429,48.178,39.992,46.8,30.71,46.8c-9.3,0-13.709,1.388-13.893,1.447  C16.504,48.348,16.333,48.682,16.434,48.995z">
    </path>
    <path xmlns="http://www.w3.org/2000/svg" fill="#3a4750" d="M16.434,55.776c0.101,0.312,0.437,0.484,0.748,0.384c0.043-0.015,4.444-1.39,13.528-1.39  c9.115,0,14.594,1.385,14.648,1.399c0.05,0.013,0.1,0.019,0.149,0.019c0.265,0,0.506-0.178,0.576-0.445  c0.083-0.318-0.109-0.643-0.427-0.726c-0.227-0.059-5.664-1.437-14.946-1.437c-9.3,0-13.709,1.387-13.893,1.446  C16.504,55.128,16.333,55.463,16.434,55.776z">
    </path>
    <path xmlns="http://www.w3.org/2000/svg" fill="#3a4750" d="M17.182,69.723c0.043-0.014,4.444-1.39,13.528-1.39c9.115,0,14.594,1.385,14.648,1.399  c0.05,0.013,0.1,0.019,0.149,0.019c0.265,0,0.506-0.178,0.576-0.445c0.083-0.318-0.109-0.643-0.427-0.726  c-0.227-0.059-5.664-1.437-14.946-1.437c-9.3,0-13.709,1.388-13.893,1.447c-0.312,0.1-0.484,0.436-0.383,0.748  S16.87,69.823,17.182,69.723z">
    </path>
    <path xmlns="http://www.w3.org/2000/svg" fill="#3a4750" d="M16.434,76.119c0.101,0.312,0.437,0.485,0.748,0.384c0.043-0.014,4.444-1.389,13.528-1.389  c9.115,0,14.594,1.385,14.648,1.398c0.05,0.014,0.1,0.02,0.149,0.02c0.265,0,0.506-0.178,0.576-0.446  c0.083-0.318-0.109-0.643-0.427-0.726c-0.227-0.059-5.664-1.437-14.946-1.437c-9.3,0-13.709,1.388-13.893,1.447  C16.504,75.472,16.333,75.807,16.434,76.119z">
    </path>
    <path xmlns="http://www.w3.org/2000/svg" fill="#3a4750" d="M54.676,42.598c0.043-0.014,4.443-1.39,13.527-1.39c9.115,0,14.595,1.385,14.648,1.399  c0.051,0.013,0.1,0.019,0.149,0.019c0.265,0,0.507-0.178,0.575-0.446c0.082-0.318-0.108-0.642-0.426-0.725  c-0.228-0.059-5.664-1.437-14.947-1.437c-9.3,0-13.709,1.388-13.893,1.447c-0.312,0.101-0.484,0.436-0.383,0.748  C54.027,42.526,54.363,42.698,54.676,42.598z">
    </path>
    <path xmlns="http://www.w3.org/2000/svg" fill="#3a4750" d="M53.928,48.995c0.1,0.312,0.436,0.484,0.748,0.384c0.043-0.014,4.443-1.39,13.527-1.39  c9.115,0,14.595,1.385,14.648,1.399c0.051,0.013,0.1,0.019,0.149,0.019c0.265,0,0.507-0.178,0.575-0.446  c0.082-0.318-0.108-0.643-0.426-0.725c-0.228-0.059-5.664-1.437-14.947-1.437c-9.3,0-13.709,1.388-13.893,1.447  C53.998,48.348,53.826,48.682,53.928,48.995z">
    </path>
    <path xmlns="http://www.w3.org/2000/svg" fill="#3a4750" d="M53.928,55.776c0.1,0.312,0.436,0.484,0.748,0.384c0.043-0.015,4.443-1.39,13.527-1.39  c9.115,0,14.595,1.385,14.648,1.399c0.051,0.013,0.1,0.019,0.149,0.019c0.265,0,0.507-0.178,0.575-0.445  c0.082-0.318-0.108-0.643-0.426-0.726c-0.228-0.059-5.664-1.437-14.947-1.437c-9.3,0-13.709,1.387-13.893,1.446  C53.998,55.128,53.826,55.463,53.928,55.776z">
    </path>
    <path xmlns="http://www.w3.org/2000/svg" fill="#3a4750" d="M54.676,69.723c0.043-0.014,4.443-1.39,13.527-1.39c9.115,0,14.595,1.385,14.648,1.399  c0.051,0.013,0.1,0.019,0.149,0.019c0.265,0,0.507-0.178,0.575-0.445c0.082-0.318-0.108-0.643-0.426-0.726  c-0.228-0.059-5.664-1.437-14.947-1.437c-9.3,0-13.709,1.388-13.893,1.447c-0.312,0.1-0.484,0.436-0.383,0.748  C54.027,69.651,54.363,69.823,54.676,69.723z">
    </path>
    <path xmlns="http://www.w3.org/2000/svg" fill="#3a4750" d="M53.928,76.119c0.1,0.312,0.436,0.485,0.748,0.384c0.043-0.014,4.443-1.389,13.527-1.389  c9.115,0,14.595,1.385,14.648,1.398c0.051,0.014,0.1,0.02,0.149,0.02c0.265,0,0.507-0.178,0.575-0.446  c0.082-0.318-0.108-0.643-0.426-0.726c-0.228-0.059-5.664-1.437-14.947-1.437c-9.3,0-13.709,1.388-13.893,1.447  C53.998,75.472,53.826,75.807,53.928,76.119z">
    </path>
    <path xmlns="http://www.w3.org/2000/svg" fill="#3a4750" d="M49.896,89.069c-0.003,0-0.025-0.004-0.056-0.01c0.031,0.006,0.055,0.01,0.067,0.012  c0.023,0.004,0.047,0.004,0.071,0.006C49.95,89.075,49.923,89.075,49.896,89.069z">
    </path>
    <path xmlns="http://www.w3.org/2000/svg" fill="#3a4750" d="M83.562,88.974c-2.026-0.707-7.907-2.461-16.361-2.461c-9.716,0-16.263,3.427-17.2,3.586  c-0.937-0.159-7.485-3.586-17.2-3.586c-8.454,0-14.334,1.754-16.361,2.461l-0.181-2.176c-0.432,0.05-0.825,0.098-1.183,0.145  l0.229,2.906c0.013,0.191,0.116,0.365,0.279,0.467c0.096,0.061,0.205,0.09,0.314,0.09c0.077,0,0.154-0.015,0.227-0.045  c0.064-0.027,6.546-2.658,16.675-2.658c10.196,0,17.028,3.574,17.096,3.586c0.069,0.013,0.141,0.013,0.209,0  c0.068-0.012,6.883-3.586,17.095-3.586c10.109,0,16.611,2.632,16.676,2.658c0.177,0.074,0.379,0.057,0.542-0.045  c0.162-0.102,0.266-0.275,0.279-0.467l0.229-2.906c-0.358-0.047-0.752-0.095-1.184-0.145L83.562,88.974z">
    </path>
    <path xmlns="http://www.w3.org/2000/svg" fill="#3a4750" d="M94.982,55.416c0.081-0.688-0.111-1.368-0.541-1.913c-0.368-0.467-0.875-0.773-1.444-0.908l1.139-3.868  c0.404-1.375-0.385-2.822-1.759-3.227c-0.24-0.071-0.486-0.106-0.734-0.106c-1.145,0-2.169,0.767-2.492,1.865l-0.955,3.244  l0.096-16.677c0.002-0.291-0.208-0.541-0.495-0.59c-0.077-0.013-7.908-1.33-19.097-1.33c-10.326,0-17.504,1.86-18.699,2.19  c-1.189-0.33-8.364-2.19-18.699-2.19c-11.188,0-19.019,1.317-19.096,1.33c-0.287,0.049-0.497,0.299-0.495,0.59l0.096,16.678  l0.426,1.446l0,0l-1.381-4.691c-0.323-1.099-1.348-1.866-2.492-1.866c-0.248,0-0.495,0.036-0.735,0.106  c-1.374,0.405-2.163,1.852-1.759,3.227l1.139,3.868c-0.569,0.135-1.077,0.441-1.444,0.908c-0.43,0.545-0.623,1.225-0.542,1.913  c0.094,0.8,0.548,1.477,1.185,1.884c-0.058,0.061-0.122,0.115-0.175,0.182c-0.43,0.545-0.622,1.225-0.541,1.914  c0.094,0.801,0.547,1.477,1.185,1.884c-0.059,0.061-0.123,0.115-0.175,0.183c-0.43,0.545-0.622,1.225-0.541,1.914  c0.094,0.8,0.548,1.477,1.186,1.883c-0.52,0.543-0.811,1.295-0.717,2.097c0.154,1.308,1.262,2.294,2.578,2.294  c0.101,0,0.204-0.006,0.307-0.018l5.809-0.684c0.689-0.082,1.306-0.426,1.736-0.971s0.623-1.225,0.542-1.914  c-0.094-0.801-0.554-1.471-1.191-1.878c0.33-0.342,0.563-0.767,0.668-1.239c0.1,0.022,0.205,0.029,0.31-0.005  c0.043-0.014,4.444-1.39,13.528-1.39c9.115,0,14.594,1.385,14.648,1.399c0.05,0.013,0.1,0.019,0.149,0.019  c0.265,0,0.506-0.178,0.576-0.445c0.083-0.318-0.109-0.643-0.427-0.726c-0.227-0.059-5.664-1.437-14.946-1.437  c-8.984,0-13.392,1.291-13.847,1.433c-0.158-0.672-0.569-1.233-1.126-1.589c0.06-0.062,0.125-0.119,0.18-0.188  c0.43-0.545,0.622-1.225,0.541-1.914c-0.094-0.801-0.554-1.471-1.191-1.877c0.523-0.543,0.818-1.298,0.723-2.104  c-0.166-1.408-1.444-2.446-2.885-2.276l-0.102,0.012l-0.101-17.529c1.878-0.283,8.909-1.235,18.398-1.235  c10.929,0,18.224,2.1,18.529,2.189c0.007,0.002,0.015-0.002,0.021,0v0.322c0,0.083,0.067,0.149,0.149,0.149s0.149-0.066,0.149-0.149  v-0.322c0.007-0.001,0.014,0.002,0.021,0c0.306-0.089,7.606-2.189,18.529-2.189c9.484,0,16.52,0.953,18.398,1.235l-0.1,17.529  l-0.102-0.012c-1.442-0.17-2.719,0.868-2.885,2.276c-0.096,0.805,0.199,1.561,0.723,2.103c-0.638,0.407-1.098,1.077-1.191,1.878  c-0.082,0.689,0.111,1.369,0.541,1.914c0.055,0.068,0.121,0.125,0.181,0.188c-0.558,0.357-0.969,0.918-1.127,1.59  c-0.302-0.078-5.72-1.434-14.935-1.434c-9.3,0-13.709,1.387-13.893,1.447c-0.312,0.1-0.484,0.436-0.383,0.748  c0.1,0.312,0.436,0.484,0.748,0.384c0.043-0.014,4.443-1.39,13.527-1.39c9.115,0,14.595,1.385,14.648,1.399  c0.051,0.013,0.1,0.019,0.149,0.019c0.044,0,0.086-0.012,0.128-0.021c0.105,0.472,0.338,0.896,0.668,1.236  c-0.639,0.408-1.098,1.078-1.191,1.879c-0.081,0.689,0.111,1.369,0.541,1.914c0.431,0.545,1.047,0.889,1.736,0.971l5.809,0.684  c0.104,0.012,0.206,0.018,0.307,0.018c0,0,0,0,0.001,0c1.315,0,2.423-0.986,2.577-2.295c0.095-0.801-0.197-1.554-0.717-2.096  c0.639-0.406,1.092-1.084,1.186-1.884c0.082-0.688-0.111-1.368-0.541-1.913c-0.053-0.067-0.116-0.122-0.175-0.183  c0.638-0.407,1.091-1.083,1.185-1.884c0.081-0.689-0.111-1.369-0.541-1.914c-0.053-0.066-0.117-0.121-0.175-0.182  C94.435,56.893,94.889,56.216,94.982,55.416z M7.959,46.641c0.13-0.038,0.265-0.058,0.399-0.058c0.62,0,1.175,0.416,1.35,1.012  l1.324,4.497l-1.166,0.138l-1.672,0.196l-1.188-4.035C6.787,47.646,7.215,46.861,7.959,46.641z M15.92,67.239  c-0.233,0.296-0.568,0.482-0.941,0.527l-5.81,0.684c-0.78,0.094-1.473-0.471-1.563-1.234c-0.091-0.771,0.463-1.473,1.234-1.564  l5.81-0.684c0.056-0.006,0.112-0.01,0.167-0.01c0.713,0,1.313,0.535,1.396,1.244C16.257,66.576,16.153,66.944,15.92,67.239z   M14.51,63.786l-5.81,0.684C7.92,64.563,7.227,64,7.137,63.236c-0.044-0.374,0.061-0.743,0.293-1.038s0.567-0.482,0.941-0.525  l5.809-0.685c0.056-0.007,0.112-0.01,0.167-0.01c0.713,0,1.314,0.534,1.397,1.244C15.835,62.994,15.282,63.695,14.51,63.786z   M14.982,59.28c-0.233,0.295-0.567,0.482-0.941,0.526l-5.809,0.685c-0.782,0.091-1.474-0.471-1.564-1.234  c-0.044-0.374,0.06-0.742,0.293-1.037c0.233-0.296,0.567-0.482,0.941-0.527l5.81-0.684c0.056-0.006,0.112-0.01,0.167-0.01  c0.712,0,1.312,0.535,1.396,1.244C15.32,58.617,15.216,58.985,14.982,59.28z M13.244,53.029c0.056-0.007,0.112-0.01,0.167-0.01  c0.713,0,1.313,0.535,1.397,1.244c0.091,0.771-0.463,1.473-1.234,1.563l-5.81,0.684c-0.785,0.094-1.474-0.47-1.564-1.234  c-0.044-0.373,0.061-0.741,0.293-1.037c0.233-0.295,0.567-0.481,0.941-0.525l0.396-0.047c0.001,0,0.002,0,0.003,0l4.037-0.477l0,0  L13.244,53.029z M90.292,47.595c0.175-0.595,0.73-1.011,1.351-1.011c0.134,0,0.268,0.02,0.398,0.058  c0.744,0.22,1.172,1.004,0.953,1.75l-1.188,4.035l-1.672-0.196l-1.166-0.138L90.292,47.595z M92.395,67.216  c-0.09,0.764-0.779,1.328-1.563,1.234l-5.81-0.684c-0.373-0.045-0.707-0.231-0.941-0.527c-0.232-0.295-0.337-0.663-0.293-1.037  c0.084-0.709,0.684-1.244,1.396-1.244c0.056,0,0.111,0.004,0.168,0.01l5.809,0.684C91.932,65.743,92.486,66.444,92.395,67.216z   M91.3,64.47l-5.81-0.684c-0.771-0.091-1.325-0.792-1.234-1.563c0.084-0.71,0.684-1.244,1.397-1.244c0.056,0,0.11,0.003,0.167,0.01  l5.809,0.685c0.374,0.043,0.708,0.23,0.941,0.525c0.232,0.295,0.338,0.664,0.293,1.037C92.773,64,92.084,64.563,91.3,64.47z   M91.769,60.491l-5.81-0.685c-0.374-0.044-0.708-0.231-0.941-0.526c-0.232-0.295-0.337-0.663-0.293-1.037  c0.084-0.709,0.684-1.244,1.396-1.244c0.055,0,0.111,0.004,0.167,0.01l5.81,0.684c0.373,0.045,0.708,0.231,0.941,0.527  c0.232,0.295,0.337,0.663,0.293,1.037C93.242,60.021,92.546,60.581,91.769,60.491z M92.236,56.511l-5.809-0.684  c-0.771-0.091-1.326-0.793-1.234-1.563c0.083-0.709,0.684-1.244,1.396-1.244c0.055,0,0.111,0.003,0.167,0.01l1.372,0.161l0,0  l4.037,0.477c0.001,0,0.002,0,0.004,0l0.396,0.047c0.373,0.044,0.707,0.23,0.941,0.525c0.232,0.296,0.337,0.664,0.293,1.037  C93.711,56.042,93.02,56.604,92.236,56.511z">
    </path>
    <path xmlns="http://www.w3.org/2000/svg" fill="#3a4750" d="M50,39.315c0.082,0,0.149-0.067,0.149-0.149v-1.779c0-0.083-0.067-0.149-0.149-0.149  s-0.149,0.066-0.149,0.149v1.779C49.851,39.248,49.918,39.315,50,39.315z">
    </path>
    <path xmlns="http://www.w3.org/2000/svg" fill="#3a4750" d="M49.851,46.284c0,0.082,0.067,0.148,0.149,0.148s0.149-0.066,0.149-0.148v-1.78  c0-0.082-0.067-0.148-0.149-0.148s-0.149,0.066-0.149,0.148V46.284z">
    </path>
    <path xmlns="http://www.w3.org/2000/svg" fill="#3a4750" d="M49.851,42.725c0,0.082,0.067,0.148,0.149,0.148s0.149-0.066,0.149-0.148v-1.779  c0-0.083-0.067-0.149-0.149-0.149s-0.149,0.066-0.149,0.149V42.725z">
    </path>
    <path xmlns="http://www.w3.org/2000/svg" fill="#3a4750" d="M49.851,71.196c0,0.082,0.067,0.148,0.149,0.148s0.149-0.066,0.149-0.148v-1.779  c0-0.082-0.067-0.148-0.149-0.148s-0.149,0.066-0.149,0.148V71.196z">
    </path>
    <path xmlns="http://www.w3.org/2000/svg" fill="#3a4750" d="M49.851,78.314c0,0.083,0.067,0.149,0.149,0.149s0.149-0.066,0.149-0.149v-1.779  c0-0.083-0.067-0.149-0.149-0.149s-0.149,0.066-0.149,0.149V78.314z">
    </path>
    <path xmlns="http://www.w3.org/2000/svg" fill="#3a4750" d="M49.851,49.843c0,0.082,0.067,0.148,0.149,0.148s0.149-0.066,0.149-0.148v-1.779  c0-0.082-0.067-0.149-0.149-0.149s-0.149,0.067-0.149,0.149V49.843z">
    </path>
    <path xmlns="http://www.w3.org/2000/svg" fill="#3a4750" d="M49.851,85.433c0,0.082,0.067,0.148,0.149,0.148s0.149-0.066,0.149-0.148v-1.779  c0-0.082-0.067-0.148-0.149-0.148s-0.149,0.066-0.149,0.148V85.433z">
    </path>
    <path xmlns="http://www.w3.org/2000/svg" fill="#3a4750" d="M49.851,81.874c0,0.082,0.067,0.148,0.149,0.148s0.149-0.066,0.149-0.148v-1.779  c0-0.083-0.067-0.149-0.149-0.149s-0.149,0.066-0.149,0.149V81.874z">
    </path>
    <path xmlns="http://www.w3.org/2000/svg" fill="#3a4750" d="M49.851,67.638c0,0.082,0.067,0.148,0.149,0.148s0.149-0.066,0.149-0.148v-1.779  c0-0.082-0.067-0.148-0.149-0.148s-0.149,0.066-0.149,0.148V67.638z">
    </path>
    <path xmlns="http://www.w3.org/2000/svg" fill="#3a4750" d="M49.851,74.756c0,0.082,0.067,0.148,0.149,0.148s0.149-0.066,0.149-0.148v-1.78  c0-0.082-0.067-0.148-0.149-0.148s-0.149,0.066-0.149,0.148V74.756z">
    </path>
    <path xmlns="http://www.w3.org/2000/svg" fill="#3a4750" d="M49.851,53.401c0,0.082,0.067,0.149,0.149,0.149s0.149-0.067,0.149-0.149v-1.779  c0-0.082-0.067-0.148-0.149-0.148s-0.149,0.066-0.149,0.148V53.401z">
    </path>
    <path xmlns="http://www.w3.org/2000/svg" fill="#3a4750" d="M49.851,56.961c0,0.082,0.067,0.148,0.149,0.148s0.149-0.066,0.149-0.148v-1.78  c0-0.082-0.067-0.148-0.149-0.148s-0.149,0.066-0.149,0.148V56.961z">
    </path>
    <path xmlns="http://www.w3.org/2000/svg" fill="#3a4750" d="M49.851,64.079c0,0.082,0.067,0.148,0.149,0.148s0.149-0.066,0.149-0.148V62.3  c0-0.083-0.067-0.149-0.149-0.149s-0.149,0.066-0.149,0.149V64.079z">
    </path>
    <path xmlns="http://www.w3.org/2000/svg" fill="#3a4750" d="M49.851,60.521c0,0.082,0.067,0.148,0.149,0.148s0.149-0.066,0.149-0.148v-1.78  c0-0.082-0.067-0.148-0.149-0.148s-0.149,0.066-0.149,0.148V60.521z">
    </path>
    <path xmlns="http://www.w3.org/2000/svg" fill="#3a4750" d="M86.808,85.027c-2.11-0.319-8.862-1.22-18.108-1.22c-9.847,0-16.843,2.815-18.55,3.574v-0.17  c0-0.082-0.067-0.148-0.149-0.148s-0.149,0.066-0.149,0.148v0.17c-1.704-0.757-8.705-3.574-18.55-3.574  c-9.246,0-15.998,0.9-18.108,1.22l-0.091-15.843l-1.189,0.141l0.094,16.402c0.001,0.176,0.079,0.342,0.214,0.454  s0.313,0.159,0.485,0.128c0.074-0.013,7.518-1.312,18.595-1.312c10.85,0,18.129,3.491,18.434,3.64  c0.05,0.024,0.107,0.044,0.163,0.054c0.034,0.006,0.068,0.009,0.103,0.009c0.038,0,0.075-0.003,0.112-0.011  c0.052-0.01,0.106-0.028,0.153-0.051c0.304-0.149,7.575-3.641,18.434-3.641c11.077,0,18.521,1.3,18.596,1.312  c0.172,0.031,0.35-0.016,0.484-0.128s0.213-0.278,0.214-0.454l0.095-16.402l-1.189-0.141L86.808,85.027z">
    </path>
    <path xmlns="http://www.w3.org/2000/svg" fill="#3a4750" d="M29.222,25.938c-0.318,1.286-0.508,2.623-0.548,3.996c0.37,0.005,0.769,0.013,1.197,0.023  c0.038-1.22,0.194-2.41,0.465-3.557c2.42,0.868,5.509,1.143,9.436,0.288c10.622-2.311,14.771-4.005,16.208-7.298  c1.397,2.671,2.164,8.542,4.732,11.29c1.924-0.208,4.126-0.403,6.691-0.547c0.902-1.472,1.871-3.881,1.006-6.675  c-1.435-4.628-5.516-14.192-9.849-10.493c0,0-0.801,0.375-1.651,1.015c-0.249-0.141-0.501-0.275-0.756-0.404  c-1.314-1.986-5.309-6.768-11.957-4.069c-8.276,3.359-15.871,10.459-22.191,7.298C22.006,16.805,23.358,23.164,29.222,25.938z">
    </path>
  </g>
  <g id="SvgjsG1802" featurekey="fNbRbf-0" transform="matrix(3.5697280135898337,0,0,3.5697280135898337,-5.425983108211466,53.51023061756051)" fill="#d72323">
    <path d="M12.28 6.199999999999999 l0.14 0.14 l0 13.6 q-0.8 0.18 -1.89 0.18 t-1.93 -0.12 l-3.14 -7.16 q-0.56 -1.22 -1.14 -2.82 l-0.06 0.02 q0.24 2.92 0.24 5.98 l0 3.98 q-0.62 0.12 -1.5 0.12 t-1.48 -0.12 l0 -13.6 q0.76 -0.18 1.83 -0.18 t1.91 0.12 l3.1 7.14 q0.84 1.98 1.24 3.04 l0.08 -0.04 q-0.24 -2.78 -0.24 -5.9 l0 -2.44 q0 -1.04 0.42 -1.49 t1.36 -0.45 l1.06 0 z M16.58 18.68 l-2.36 -12.16 q0.96 -0.36 1.7 -0.36 q0.84 0 1.22 0.37 t0.54 1.39 l0.84 5.16 q0.38 2.32 0.48 3.24 t0.13 0.96 t0.13 0.04 l1.66 -10.72 q0.74 -0.14 2.06 -0.14 t2.04 0.14 l1.52 10.46 q0.02 0.18 0.07 0.22 t0.15 0.04 q0.18 -1.88 0.6 -4.26 l1.12 -6.72 q0.58 -0.12 1.34 -0.12 q0.92 0 1.62 0.22 l0.14 0.18 l-2.64 13.36 q-1.3 0.14 -2.44 0.14 t-1.62 -0.28 t-0.62 -1.16 l-0.68 -4.34 q-0.36 -2.36 -0.58 -4.64 l-0.14 0 q-0.22 1.94 -0.66 4.64 l-0.9 5.64 q-1.36 0.14 -2.47 0.14 t-1.59 -0.28 t-0.66 -1.16 z M40.5 11.78 l0 -0.24 q0 -2.96 -2.2 -2.96 q-1.26 0 -1.82 1.15 t-0.56 3.39 q0 2.22 0.7 3.3 t2.04 1.08 q0.7 0 1.55 -0.33 t1.85 -1.05 q0.5 0.34 0.93 0.93 t0.53 1.13 q-0.46 0.44 -1.07 0.83 t-1.32 0.67 t-1.48 0.45 t-1.55 0.17 q-1.54 0 -2.6 -0.59 t-1.71 -1.57 t-0.94 -2.26 t-0.29 -2.66 q0 -1.8 0.45 -3.15 t1.22 -2.25 t1.81 -1.35 t2.22 -0.45 q1.2 0 2.18 0.32 t1.67 0.88 t1.06 1.32 t0.37 1.64 q0 1.78 -1.82 1.78 q-0.54 0 -1.22 -0.18 z"></path>
  </g>
  <g id="SvgjsG1803" featurekey="gqtJpI-0" transform="matrix(0.6160154523977057,0,0,0.6160154523977057,14.21698934032709,132.10554441871116)" fill="#3a4750">
    <path d="M9.9659 7.728999999999999 l-7.3556 0.00049656 l0 4.9659 l4.5424 0 c0.15254 0 0.23729 0.067797 0.23729 0.23729 l0 0.81339 c0 0.15254 -0.084746 0.22034 -0.23729 0.22034 l-4.5424 0 l0 4.7458 l7.3559 0 c0.15254 0 0.23712 0.084746 0.23712 0.23712 l0 0.81356 c0 0.16949 -0.067797 0.23712 -0.23729 0.23712 l-8.4746 0 c-0.15254 0 -0.22034 -0.08458 -0.22034 -0.22017 l0 -13.119 c0 -0.15254 0.084746 -0.22034 0.22034 -0.22034 l8.4746 0 c0.15254 0 0.23712 0.084746 0.23712 0.22034 l0 0.84746 c0 0.13559 -0.067797 0.22034 -0.23729 0.22034 z M27.88797627118644 6.441000000000001 c4.6271 0 6.9153 3.4239 6.9153 6.6949 c0 3.4576 -2.3051 6.8642 -6.8644 6.8642 l-4.6271 0 c-0.15254 0 -0.22034 -0.08458 -0.22034 -0.22017 l0 -13.119 c0 -0.15254 0.067797 -0.22034 0.22034 -0.22034 l4.5763 0 z M28.00657627118644 18.7122 c3.5422 0 5.4576 -2.7798 5.4407 -5.5764 c0 -2.7797 -1.8644 -5.4066 -5.4407 -5.4066 l-3.5932 0 l0.016949 10.983 l3.5763 0 z M58.25077966101694 6.441000000000001 l-0.89797 0 c-0.16949 0 -0.23729 0.050847 -0.23729 0.22051 l0 8.1524 c0 2.8305 -2.1186 4.0169 -4.0341 4.0169 c-1.8644 0 -3.9492 -1.1864 -3.9492 -4.0169 l0 -8.1524 c0 -0.15254 -0.067797 -0.22034 -0.22034 -0.22034 l-0.88136 0 c-0.16949 0 -0.23729 0.067797 -0.23729 0.22034 l0 8.3388 c0.016784 2.7292 1.9659 5.1186 5.288 5.1186 c3.339 0 5.3559 -2.3895 5.3729 -5.1186 l0 -8.3388 c0 -0.16966 -0.067797 -0.22051 -0.20339 -0.22051 z M83.17286440677965 17.729 c0.11864 0.08458 0.084746 0.22017 -0.067797 0.37271 c-1.2544 1.2542 -2.8814 2.0168 -4.8983 2.0168 c-3.8136 0 -6.9322 -3.0168 -6.9322 -6.8812 c0 -3.8475 3.1186 -6.9153 6.9322 -6.9153 c1.9322 0 3.661 0.74576 4.9322 2.0169 c0.15254 0.15254 0.16949 0.27119 0.067797 0.35593 l-0.71186 0.59322 c-0.11864 0.10169 -0.22034 0.10169 -0.33898 -0.016949 c-0.71186 -0.74559 -2.1186 -1.6608 -3.8475 -1.6608 c-3.678 0 -5.7119 2.9831 -5.7119 5.6271 c0 2.678 2.0339 5.5932 5.7119 5.5932 c1.7288 0 3.0508 -0.88136 3.7966 -1.6271 c0.13559 -0.13559 0.23729 -0.16949 0.35593 -0.067797 z M108.82393220338982 19.77983 c0.067797 0.13559 0.034229 0.22017 -0.11831 0.22017 l-1.0339 0 c-0.11864 0 -0.18644 -0.050847 -0.23729 -0.15254 l-1.1864 -2.5254 l-8.1864 0 l-1.1864 2.5254 c-0.050847 0.10169 -0.11848 0.15254 -0.22034 0.15254 l-1.0678 0 c-0.11864 0 -0.18644 -0.08458 -0.11864 -0.22017 l6.3558 -13.271 c0.067797 -0.11864 0.11864 -0.15254 0.20322 -0.15254 l0.23745 0 c0.084746 0 0.15254 0.033898 0.20339 0.15254 z M98.63743220338982 16.1019 l7.0339 0 l-3.5254 -7.4576 z M129.62737288135594 6.441000000000001 c0.15254 0 0.22051 0.067797 0.22051 0.22034 l0 0.84746 c0 0.13559 -0.067797 0.22034 -0.22034 0.22034 l-4.3729 0 l0 12.034 c0 0.15254 -0.067797 0.23712 -0.20339 0.23712 l-0.67797 0 c-0.30508 0 -0.45763 -0.18644 -0.45763 -0.47441 l0 -11.797 l-4.3729 0 c-0.15254 0 -0.23729 -0.084746 -0.23729 -0.22034 l0 -0.83051 c0 -0.16949 0.084746 -0.23729 0.23729 -0.23729 l10.085 0 z M143.92205593220336 6.441000000000001 l-0.86441 0 c-0.15254 0 -0.22034 0.067797 -0.22034 0.22034 l0 13.119 c0 0.13559 0.067797 0.22017 0.22034 0.22017 l0.88136 0 c0.11864 0 0.20339 -0.08458 0.20339 -0.22017 l0 -13.119 c0 -0.15254 -0.084746 -0.22034 -0.22034 -0.22034 z M164.35259152542372 20.11864 c3.8305 0 6.9492 -3.0337 6.9492 -6.8981 c0 -3.8475 -3.1186 -6.8983 -6.9492 -6.8983 c-3.8475 0 -6.9661 3.0508 -6.9661 6.8983 c0 3.8644 3.1186 6.8981 6.9661 6.8981 z M164.35259152542372 18.8307 c-3.0847 0 -5.6441 -2.5085 -5.6441 -5.6102 s2.5593 -5.6102 5.6441 -5.6102 c3.0846 0 5.61 2.5085 5.61 5.6102 s-2.5254 5.6102 -5.61 5.6102 z M195.86783050847455 6.441000000000001 c0.11864 0 0.20356 0.067631 0.20356 0.18627 l0 13.186 c0 0.11881 -0.084746 0.18644 -0.20339 0.18644 l-0.35593 0 c-0.25441 0 -0.49169 -0.16933 -0.81373 -0.52525 l-8.9153 -10.525 l0 10.831 c0 0.13559 -0.084746 0.22017 -0.22034 0.22017 l-0.88136 0 c-0.15254 0 -0.22034 -0.08458 -0.22034 -0.22017 l0 -13.136 c0 -0.11864 0.067797 -0.20339 0.20339 -0.20339 l0.55932 0 c0.11864 0 0.20339 0.050847 0.32203 0.18644 l9.2034 10.932 l0 -10.932 c0 -0.11864 0.067797 -0.18644 0.18644 -0.18644 l0.9322 0 z"></path>
  </g>
</svg>